# xmcd
#
# Track frame offsets:
#	150
#	15672
#	34512
#	51011
#	69934
#	86129
#	104406
#	119537
#	130723
#	146246
#	162034
#	178073
#
# Disc length: 2563 seconds
#
# Revision: 1
# Processed by: cddbd v1.5.2PL0 Copyright (c) Steve Scherf et al.
# Submitted via: audiograbber 1.83.01
#
DISCID=9f0a010c
DTITLE=Brian Burchfield - Songs That Touch The Heart
DYEAR=1900
DGENRE=Gospel
TTITLE0=Just A Few More Steps Away
TTITLE1=I Thought You'd Like To Know
TTITLE2=The Family Circle
TTITLE3=Amazing Love
TTITLE4=God Will Make A Way Somehow
TTITLE5=The Shepherds Point Of Veiw
TTITLE6=When I Thank Him For What He has Done
TTITLE7=The Message
TTITLE8=I Know Something About God's Grace
TTITLE9=The Holy Hills Of Heaven Call Me
TTITLE10=He Will Understand
TTITLE11=I Keep Praying
EXTD=
EXTT0=
EXTT1=
EXTT2=
EXTT3=
EXTT4=
EXTT5=
EXTT6=
EXTT7=
EXTT8=
EXTT9=
EXTT10=
EXTT11=
PLAYORDER=
